<svg width="48" height="48" viewBox="0 0 48 48" fill="none" xmlns="http://www.w3.org/2000/svg">
<path fill-rule="evenodd" clip-rule="evenodd" d="M41.5019 24C33.0448 35.7961 15.037 35.9735 6.49528 24C15.037 12.0265 33.0448 12.2039 41.5019 24ZM4.81229 23.5378C13.9849 9.96102 34.1249 10.1813 43.1855 23.5365L43.5 24L43.1855 24.4635C34.1249 37.8187 13.9849 38.039 4.81229 24.4622L4.5 24L4.81229 23.5378Z" fill="white"/>
<path fill-rule="evenodd" clip-rule="evenodd" d="M24.1022 33.8923C29.5531 33.8923 33.972 29.4633 33.972 23.9998C33.972 18.5364 29.5531 14.1074 24.1022 14.1074C18.6512 14.1074 14.2323 18.5364 14.2323 23.9998C14.2323 29.4633 18.6512 33.8923 24.1022 33.8923ZM24.1022 32.2435C28.6446 32.2435 32.3271 28.5527 32.3271 23.9998C32.3271 19.447 28.6446 15.7561 24.1022 15.7561C19.5597 15.7561 15.8773 19.447 15.8773 23.9998C15.8773 28.5527 19.5597 32.2435 24.1022 32.2435Z" fill="white"/>
<path fill-rule="evenodd" clip-rule="evenodd" d="M24.1022 29.9765C27.3955 29.9765 30.0652 27.3007 30.0652 23.9998C30.0652 20.699 27.3955 18.0232 24.1022 18.0232C20.8089 18.0232 18.1391 20.699 18.1391 23.9998C18.1391 27.3007 20.8089 29.9765 24.1022 29.9765ZM25.7471 23.9998C26.7692 23.9998 27.5977 23.1694 27.5977 22.145C27.5977 21.1206 26.7692 20.2902 25.7471 20.2902C24.7251 20.2902 23.8965 21.1206 23.8965 22.145C23.8965 23.1694 24.7251 23.9998 25.7471 23.9998Z" fill="white"/>
</svg>
