<svg width="48" height="48" viewBox="0 0 48 48" fill="none" xmlns="http://www.w3.org/2000/svg">
<path d="M38.7523 23.3557C31.3479 14.0021 16.7112 13.8638 9.24162 23.3583C8.73282 24.005 8.73282 24.9137 9.24162 25.5605C16.7112 35.055 31.3479 34.9167 38.7523 25.5631C39.2648 24.9156 39.2648 24.0031 38.7523 23.3557Z" stroke="white" stroke-width="2.01212"/>
<path fill-rule="evenodd" clip-rule="evenodd" d="M24.0314 30.2441C27.3652 30.2441 30.0678 27.6541 30.0678 24.4592C30.0678 21.2643 27.3652 18.6744 24.0314 18.6744C20.6976 18.6744 17.9951 21.2643 17.9951 24.4592C17.9951 27.6541 20.6976 30.2441 24.0314 30.2441ZM25.6303 24.4592C26.6126 24.4592 27.4089 23.6629 27.4089 22.6807C27.4089 21.6984 26.6126 20.9021 25.6303 20.9021C24.6481 20.9021 23.8518 21.6984 23.8518 22.6807C23.8518 23.6629 24.6481 24.4592 25.6303 24.4592Z" fill="white"/>
<rect class="vov-eye-line" x="11.9946" y="33.6491" width="31.4419" height="4.15" rx="1.18571" transform="rotate(-45 11.9946 33.6491)" fill="white"/>
</svg>
